<svg width="29" height="29" viewBox="0 0 29 29" fill="none" xmlns="http://www.w3.org/2000/svg">
<path d="M14.5 0C6.50429 0 0 6.50488 0 14.5C0 22.495 6.50429 28.9999 14.5 28.9999C22.4956 28.9999 28.9999 22.495 28.9999 14.5C28.9999 6.50488 22.4957 0 14.5 0ZM19.3377 15.0918H15.0919V19.337C15.0919 19.6643 14.8274 19.9289 14.5 19.9289C14.1727 19.9289 13.9082 19.6643 13.9082 19.337V15.0918H9.6623C9.33558 15.0918 9.07045 14.8267 9.07045 14.5C9.07045 14.1732 9.33558 13.9081 9.6623 13.9081H13.9081V9.6623C13.9081 9.33558 14.1726 9.07045 14.5 9.07045C14.8273 9.07045 15.0918 9.33558 15.0918 9.6623V13.9081H19.3376C19.6649 13.9081 19.9294 14.1732 19.9294 14.5C19.9294 14.8267 19.6649 15.0918 19.3377 15.0918Z" fill="#F8F0FB"/>
</svg>
