<svg width="29" height="29" viewBox="0 0 29 29" fill="none" xmlns="http://www.w3.org/2000/svg">
<g clip-path="url(#clip0_1_16)">
<path d="M28.5132 13.2013L24.1182 8.8062V3.72913C24.1182 2.81113 23.3742 2.06716 22.4549 2.06716C21.5376 2.06716 20.7937 2.81113 20.7937 3.72913V5.48184L17.5212 2.20923C15.9033 0.592154 13.0902 0.595023 11.4759 2.21216L0.486576 13.2013C-0.162151 13.8513 -0.162151 14.9031 0.486576 15.5521C1.1356 16.2019 2.18941 16.2019 2.8382 15.5521L13.8265 4.56267C14.1845 4.20657 14.8154 4.20657 15.1715 4.56161L26.1617 15.5521C26.4876 15.877 26.9124 16.0387 27.3372 16.0387C27.7628 16.0387 28.1884 15.8769 28.5133 15.5521C29.1623 14.9031 29.1623 13.8514 28.5132 13.2013Z" fill="#F8F0FB"/>
<path d="M15.0773 7.71747C14.758 7.39838 14.2411 7.39838 13.9227 7.71747L4.25646 17.3809C4.10385 17.5334 4.01733 17.7417 4.01733 17.9591V25.0072C4.01733 26.6611 5.35834 28.002 7.01218 28.002H11.798V20.5904H17.201V28.002H21.9869C23.6407 28.002 24.9817 26.6611 24.9817 25.0073V17.9591C24.9817 17.7417 24.8959 17.5334 24.7425 17.3809L15.0773 7.71747Z" fill="#F8F0FB"/>
</g>
<defs>
<clipPath id="clip0_1_16">
<rect width="29" height="29" fill="white"/>
</clipPath>
</defs>
</svg>
